<svg class="hidden">
  <symbol fill="none" xmlns="http://www.w3.org/2000/svg" viewBox="0 0 28 30" id="logo">
    <mask id="mask0_401_1245" maskUnits="userSpaceOnUse" x="0" y="0" width="28" height="30">
      <path d="M8.89428 26.3647C8.89428 28.366 7.27197 29.9883 5.27075 29.9883C3.26953 29.9883 1.64722 28.366 1.64722 26.3647C1.64722 24.3635 3.26953 22.7412 5.27075 22.7412C7.27197 22.7412 8.89428 24.3635 8.89428 26.3647Z" fill="#C4C4C4"></path>
      <path d="M26.3533 26.3647C26.3533 28.366 24.731 29.9883 22.7297 29.9883C20.7285 29.9883 19.1062 28.366 19.1062 26.3647C19.1062 24.3635 20.7285 22.7412 22.7297 22.7412C24.731 22.7412 26.3533 24.3635 26.3533 26.3647Z" fill="#C4C4C4"></path>
      <path fill-rule="evenodd" clip-rule="evenodd" d="M25.1913 23.7058C25.4382 23.9345 25.4094 24.3209 25.1508 24.5363C23.7802 25.6779 22.0174 26.3647 20.0941 26.3647H19.7649C19.401 26.3647 19.0998 26.0671 19.1652 25.7091C19.4737 24.0209 20.9522 22.7412 22.7296 22.7412C23.68 22.7412 24.545 23.1071 25.1913 23.7058ZM27.0987 22.1282C26.8986 22.5093 26.3844 22.543 26.0504 22.2717C25.144 21.5354 23.9883 21.0942 22.7296 21.0942C20.0414 21.0942 17.8233 23.1066 17.4996 25.7072C17.4547 26.0682 17.164 26.3647 16.8002 26.3647H11.2C10.8361 26.3647 10.5455 26.0682 10.5006 25.7072C10.1769 23.1066 7.95876 21.0942 5.27059 21.0942C4.0118 21.0942 2.85608 21.5354 1.94969 22.2718C1.61563 22.5431 1.10145 22.5094 0.901402 22.1283C0.325709 21.0317 0 19.7833 0 18.4588V16.8116C0 16.4478 0.294965 16.1528 0.658823 16.1528H27.3412C27.705 16.1528 28 16.4478 28 16.8116V18.4588C28 19.7832 27.6743 21.0316 27.0987 22.1282ZM28 13.8469C28 14.2108 27.705 14.5057 27.3412 14.5057H0.658824C0.294965 14.5057 0 14.2108 0 13.8469V9.89402C0 9.53016 0.294965 9.2352 0.658823 9.2352H27.3412C27.705 9.2352 28 9.53016 28 9.89402V13.8469ZM7.90588 0.0117188C3.883 0.0117188 0.561907 3.0164 0.0643695 6.904C0.0168356 7.27541 0.318678 7.58814 0.693122 7.58814H27.3069C27.6813 7.58814 27.9832 7.27541 27.9356 6.904C27.4381 3.0164 24.117 0.0117188 20.0941 0.0117188H7.90588ZM5.27059 22.7412C7.04795 22.7412 8.52644 24.0209 8.83496 25.7091C8.90037 26.0671 8.59914 26.3647 8.23528 26.3647H7.90588C5.98268 26.3647 4.21987 25.6779 2.84928 24.5364C2.59074 24.321 2.56193 23.9345 2.80878 23.7059C3.45509 23.1072 4.3201 22.7412 5.27059 22.7412Z" fill="#C4C4C4"></path>
    </mask>
    <g mask="url(#mask0_401_1245)">
      <rect x="-1.64722" y="-2.29395" width="33.6" height="10.8706" fill="url(#paint0_linear_401_1245)"></rect>
      <rect x="-1.64722" y="15.4941" width="33.6" height="16.4706" fill="#FFA833"></rect>
      <rect x="-1.64722" y="8.57666" width="33.6" height="7.24706" rx="3.62353" fill="#F17228"></rect>
      <rect x="-23.0586" y="22.7412" width="31.9529" height="7.24706" fill="#F58D00"></rect>
      <rect x="19.1062" y="22.7412" width="31.9529" height="7.24706" fill="#F58D00"></rect>
      <ellipse cx="8.11249" cy="2.82316" rx="1" ry="0.5" transform="rotate(-20.8548 8.11249 2.82316)" fill="white"></ellipse>
      <ellipse cx="14" cy="2.5" rx="1" ry="0.5" fill="white"></ellipse>
      <ellipse cx="19.1176" cy="2.91225" rx="1" ry="0.5" transform="rotate(28.1155 19.1176 2.91225)" fill="white"></ellipse>
    </g>
    <defs>
      <linearGradient id="paint0_linear_401_1245" x1="14.9999" y1="-0.5" x2="14.9999" y2="17" gradientUnits="userSpaceOnUse">
        <stop stop-color="#FFD16D"></stop>
        <stop offset="1" stop-color="#FF7A00"></stop>
      </linearGradient>
    </defs>
  </symbol>


  <symbol id='location' width="14" height="19" viewBox="0 0 14 19" xmlns="http://www.w3.org/2000/svg">
    <path d="M6.29688 18.3984C1.16406 11.0156 0.25 10.2422 0.25 7.5C0.25 3.77344 3.23828 0.75 7 0.75C10.7266 0.75 13.75 3.77344 13.75 7.5C13.75 10.2422 12.8008 11.0156 7.66797 18.3984C7.35156 18.8906 6.61328 18.8906 6.29688 18.3984ZM7 10.3125C8.54688 10.3125 9.8125 9.08203 9.8125 7.5C9.8125 5.95312 8.54688 4.6875 7 4.6875C5.41797 4.6875 4.1875 5.95312 4.1875 7.5C4.1875 9.08203 5.41797 10.3125 7 10.3125Z" fill="currentColor"/>
  </symbol>

  <symbol id='auth' width="16" height="19" viewBox="0 0 16 19" fill="currentColor" xmlns="http://www.w3.org/2000/svg">
  <path d="M8 9.25C5.50391 9.25 3.5 7.24609 3.5 4.75C3.5 2.28906 5.50391 0.25 8 0.25C10.4609 0.25 12.5 2.28906 12.5 4.75C12.5 7.24609 10.4609 9.25 8 9.25ZM11.1289 10.375C13.7305 10.375 15.875 12.5195 15.875 15.1211V16.5625C15.875 17.5117 15.1016 18.25 14.1875 18.25H1.8125C0.863281 18.25 0.125 17.5117 0.125 16.5625V15.1211C0.125 12.5195 2.23438 10.375 4.83594 10.375H5.43359C6.20703 10.7617 7.08594 10.9375 8 10.9375C8.91406 10.9375 9.75781 10.7617 10.5312 10.375H11.1289Z" fill="url(#paint0_linear_401_1279)"/>
  <defs>
  <linearGradient id="paint0_linear_401_1279" x1="-7.02825" y1="-22.35" x2="23.9034" y2="-20.9848" gradientUnits="userSpaceOnUse">
  <stop stop-color="#FFB800"/>
  <stop offset="1" stop-color="#FF8A00"/>
  </linearGradient>
  </defs>
  </symbol>

  <symbol id='search' width="19" height="19" viewBox="0 0 19 19" xmlns="http://www.w3.org/2000/svg">
  <path d="M17.7539 15.8242L14.2383 12.3086C14.0625 12.168 13.8516 12.0625 13.6406 12.0625H13.0781C14.0273 10.832 14.625 9.28516 14.625 7.5625C14.625 3.55469 11.3203 0.25 7.3125 0.25C3.26953 0.25 0 3.55469 0 7.5625C0 11.6055 3.26953 14.875 7.3125 14.875C9 14.875 10.5469 14.3125 11.8125 13.3281V13.9258C11.8125 14.1367 11.8828 14.3477 12.0586 14.5234L15.5391 18.0039C15.8906 18.3555 16.418 18.3555 16.7344 18.0039L17.7188 17.0195C18.0703 16.7031 18.0703 16.1758 17.7539 15.8242ZM7.3125 12.0625C4.81641 12.0625 2.8125 10.0586 2.8125 7.5625C2.8125 5.10156 4.81641 3.0625 7.3125 3.0625C9.77344 3.0625 11.8125 5.10156 11.8125 7.5625C11.8125 10.0586 9.77344 12.0625 7.3125 12.0625Z" fill="currentColor"/>
</symbol>


  <symbol id='delivery' width="24" height="15" viewBox="0 0 24 15" xmlns="http://www.w3.org/2000/svg">
    <path d="M19 5C21.4609 5.03516 23.4648 7.03906 23.5 9.46484C23.5 11.9961 21.4609 14.0352 18.9297 14C16.5039 14 14.5 11.9961 14.5 9.53516C14.4648 8.16406 15.0977 6.93359 16.0469 6.08984L15.625 5.35156C14.2539 6.47656 13.5859 8.09375 13.6562 9.74609C13.6562 10.2383 13.2695 10.625 12.8125 10.625H9.85938C9.33203 12.5938 7.57422 14 5.5 14C2.96875 14 0.929688 11.9609 1 9.39453C1.03516 7.03906 2.93359 5.10547 5.32422 5.03516C5.81641 5 6.30859 5.07031 6.76562 5.21094L7.15234 4.47266C6.83594 3.98047 6.34375 3.59375 5.5 3.59375H3.53125C3.03906 3.59375 2.6875 3.24219 2.6875 2.78516C2.65234 2.29297 3.07422 1.90625 3.53125 1.90625H5.5C7.43359 1.90625 8.38281 2.50391 8.98047 3.3125H14.3945L13.7266 2.1875H11.4062C11.0898 2.1875 10.8438 1.94141 10.8438 1.625V1.0625C10.8438 0.78125 11.0898 0.5 11.4062 0.5H14.2188C14.5 0.5 14.7812 0.675781 14.9219 0.921875L15.7305 2.25781L17.0312 0.78125C17.207 0.605469 17.418 0.5 17.6641 0.5H19.2812C19.7383 0.5 20.125 0.886719 20.125 1.34375V2.46875C20.125 2.96094 19.7383 3.3125 19.2812 3.3125H16.3633L17.5234 5.24609C17.9805 5.10547 18.5078 5 19 5ZM5.5 12.3125C6.625 12.3125 7.60938 11.6445 8.06641 10.625H5.21875C4.55078 10.625 4.16406 9.95703 4.48047 9.39453L5.92188 6.72266C5.78125 6.72266 5.64062 6.6875 5.5 6.6875C3.91797 6.6875 2.6875 7.95312 2.6875 9.5C2.6875 11.082 3.91797 12.3125 5.5 12.3125ZM21.7773 9.67578C21.8828 8.05859 20.582 6.6875 19 6.72266C18.7891 6.72266 18.6133 6.72266 18.4375 6.75781L20.125 9.60547C20.3008 9.88672 20.1953 10.2383 19.9492 10.3789L19.457 10.6602C19.1758 10.8359 18.8594 10.7305 18.6836 10.4844L16.9609 7.56641C16.4688 8.09375 16.1875 8.76172 16.1875 9.5C16.1875 11.1172 17.5234 12.418 19.1406 12.3125C20.5469 12.2422 21.707 11.082 21.7773 9.67578Z" fill='currentColor' />
  </symbol>

  
  <symbol xmlns="http://www.w3.org/2000/svg" id="pickup">
    <path d="M12.375 5.875V4.75C12.375 2.28906 10.3359 0.25 7.875 0.25C5.37891 0.25 3.375 2.28906 3.375 4.75V5.875H0V15.4375C0 17.0195 1.23047 18.25 2.8125 18.25H12.9375C14.4844 18.25 15.75 17.0195 15.75 15.4375V5.875H12.375ZM5.625 4.75C5.625 3.51953 6.60938 2.5 7.875 2.5C9.10547 2.5 10.125 3.51953 10.125 4.75V5.875H5.625V4.75ZM11.25 8.96875C10.7578 8.96875 10.4062 8.61719 10.4062 8.125C10.4062 7.66797 10.7578 7.28125 11.25 7.28125C11.707 7.28125 12.0938 7.66797 12.0938 8.125C12.0938 8.61719 11.707 8.96875 11.25 8.96875ZM4.5 8.96875C4.00781 8.96875 3.65625 8.61719 3.65625 8.125C3.65625 7.66797 4.00781 7.28125 4.5 7.28125C4.95703 7.28125 5.34375 7.66797 5.34375 8.125C5.34375 8.61719 4.95703 8.96875 4.5 8.96875Z" fill="currentColor"></path>
  </symbol>


  <symbol id='description__location' viewBox="0 0 87 112" xmlns="http://www.w3.org/2000/svg">
    <path d="M43.5 1C66.6655 1 85.5 19.6954 85.5 42.6562C85.5 57.8084 78.6595 66.5396 65.749 82.918C60.2195 89.9328 53.3236 98.6809 45.3984 110.016C44.9686 110.63 44.2601 111 43.5 111C42.7399 111 42.0314 110.63 41.6016 110.016C33.594 98.5628 26.668 89.7826 21.1143 82.7422C8.29313 66.4889 1.5 57.825 1.5 42.6562C1.5 19.6954 20.3345 1 43.5 1Z" fill="url(#paint0_linear_513_106)" stroke="url(#paint1_linear_513_106)" stroke-width="2"/>
    <path d="M43.5 66C30.8178 66 20.5 55.6822 20.5 43C20.5 30.3178 30.8178 20 43.5 20C56.1822 20 66.5 30.3178 66.5 43C66.5 55.6822 56.1822 66 43.5 66Z" fill="white"/>
    <defs>
    <linearGradient id="paint0_linear_513_106" x1="43.5" y1="-42.8025" x2="43.5" y2="149.452" gradientUnits="userSpaceOnUse">
    <stop offset="0.630208" stop-color="#FFAE00"/>
    <stop offset="1" stop-color="#FFCD1E"/>
    </linearGradient>
    <linearGradient id="paint1_linear_513_106" x1="43.5" y1="0" x2="43.5" y2="112" gradientUnits="userSpaceOnUse">
    <stop stop-color="#FF9F00"/>
    <stop offset="1" stop-color="#FFB800"/>
    </linearGradient>
    </defs>
  </symbol>

  <symbol id='description__order' width="87" height="112" viewBox="0 0 87 112" fill="none" xmlns="http://www.w3.org/2000/svg">
    <rect x="1" y="1" width="85" height="110" rx="16" fill="url(#paint0_linear_568_848)" stroke="url(#paint1_linear_568_848)" stroke-width="2"/>
    <path d="M67.9604 59.9846C67.9604 58.0203 66.3643 56.4308 64.3918 56.4308H60.8232V52.8769C60.8232 44.2965 54.685 37.1185 46.5488 35.4673V31.5538C46.5488 29.5895 44.9527 28 42.9802 28C41.0077 28 39.4116 29.5895 39.4116 31.5538V35.4673C31.2754 37.1185 25.1372 44.2965 25.1372 52.8769V56.4308H21.5686C19.5961 56.4308 18 58.0203 18 59.9846C18 61.9489 19.5961 63.5385 21.5686 63.5385H64.3918C66.3643 63.5385 67.9604 61.9489 67.9604 59.9846ZM57.2546 77.7538H28.7058C26.7333 77.7538 25.1372 79.3434 25.1372 81.3077C25.1372 83.272 26.7333 84.8615 28.7058 84.8615H57.2546C59.2271 84.8615 60.8232 83.272 60.8232 81.3077C60.8232 79.3434 59.2271 77.7538 57.2546 77.7538Z" fill="white"/>
    <defs>
    <linearGradient id="paint0_linear_568_848" x1="43.5" y1="-42.8025" x2="43.5" y2="149.452" gradientUnits="userSpaceOnUse">
    <stop offset="0.630208" stop-color="#FFAE00"/>
    <stop offset="1" stop-color="#FFCD1E"/>
    </linearGradient>
    <linearGradient id="paint1_linear_568_848" x1="43.5" y1="0" x2="43.5" y2="112" gradientUnits="userSpaceOnUse">
    <stop stop-color="#FF9F00"/>
    <stop offset="1" stop-color="#FFB800"/>
    </linearGradient>
    </defs>
  </symbol>

  <symbol id='description__enjoy' width="113" height="112" viewBox="0 0 113 112" fill="none" xmlns="http://www.w3.org/2000/svg">
    <path d="M56.5 1C86.7254 1 111.5 25.7742 111.5 56C111.5 70.9867 105.236 84.5825 95.459 94.5039L56.5 107.663L17.54 94.5039C7.7634 84.5826 1.5 70.9864 1.5 56C1.5 25.7742 26.2742 1 56.5 1ZM56.5 32.0312C43.2821 32.0312 32.5312 42.7821 32.5312 56C32.5312 69.2179 43.2821 79.9688 56.5 79.9688C69.7179 79.9688 80.4688 69.2179 80.4688 56C80.4688 42.7821 69.7179 32.0312 56.5 32.0312Z" fill="url(#paint0_linear_568_865)" stroke="url(#paint1_linear_568_865)" stroke-width="2"/>
    <path d="M56.4998 95.3749C46.656 95.3749 46.656 88.8124 36.8123 88.8124C26.9685 88.8124 26.9685 95.4405 16.9933 95.3749C27.0998 105.481 41.0779 112 56.4998 112C71.9217 112 85.8996 105.481 96.0063 95.3749C86.031 95.4405 86.0967 88.8124 76.1873 88.8124C66.3435 88.8124 66.3435 95.3749 56.4998 95.3749ZM26.0071 66.8051C24.7255 65.5234 22.6489 65.5234 21.3672 66.8051C20.0856 68.0867 20.0856 70.1633 21.3672 71.445L27.9297 78.0075C29.2116 79.2891 31.288 79.2891 32.5696 78.0075C33.8513 76.7258 33.8513 74.6492 32.5696 73.3676L26.0071 66.8051ZM56.4998 26.4687H69.6248C71.4384 26.4687 72.906 25.0011 72.906 23.1874C72.906 21.3738 71.4384 19.9062 69.6248 19.9062H56.4998C54.6861 19.9062 53.2185 21.3738 53.2185 23.1874C53.2185 25.0011 54.6861 26.4687 56.4998 26.4687ZM85.0696 78.0073L91.6321 71.4448C92.9138 70.1631 92.9138 68.0865 91.6321 66.8049C90.3505 65.5232 88.2739 65.5232 86.9922 66.8049L80.4297 73.3674C79.1481 74.649 79.1481 76.7256 80.4297 78.0073C81.7116 79.2891 83.788 79.2891 85.0696 78.0073ZM86.9924 45.1948C88.2743 46.4764 90.3507 46.4764 91.6323 45.1948C92.914 43.9131 92.914 41.8365 91.6323 40.5549L85.0698 33.9924C83.7882 32.7107 81.7116 32.7107 80.4299 33.9924C79.1483 35.274 79.1483 37.3506 80.4299 38.6323L86.9924 45.1948ZM26.0071 45.1948L32.5696 38.6323C33.8513 37.3506 33.8513 35.274 32.5696 33.9924C31.288 32.7107 29.2114 32.7107 27.9297 33.9924L21.3672 40.5549C20.0856 41.8365 20.0856 43.9131 21.3672 45.1948C22.6491 46.4767 24.7255 46.4767 26.0071 45.1948ZM43.375 26.3125C45.1871 26.3125 46.6562 24.8434 46.6562 23.0312C46.6562 21.2191 45.1871 19.75 43.375 19.75C41.5629 19.75 40.0938 21.2191 40.0938 23.0312C40.0938 24.8434 41.5627 26.3125 43.375 26.3125ZM20.4062 55.8437C20.4062 54.0316 18.9371 52.5625 17.125 52.5625C15.3129 52.5625 13.8438 54.0316 13.8438 55.8437C13.8438 57.6559 15.3129 59.125 17.125 59.125C18.9371 59.125 20.4062 57.6559 20.4062 55.8437ZM95.875 52.5625C94.0629 52.5625 92.5938 54.0316 92.5938 55.8437C92.5938 57.6559 94.0629 59.125 95.875 59.125C97.6871 59.125 99.1562 57.6559 99.1562 55.8437C99.1562 54.0316 97.6871 52.5625 95.875 52.5625Z" fill="white"/>
    <defs>
    <linearGradient id="paint0_linear_568_865" x1="56.5" y1="-41.5486" x2="56.5" y2="145.074" gradientUnits="userSpaceOnUse">
    <stop offset="0.630208" stop-color="#FFAE00"/>
    <stop offset="1" stop-color="#FFCD1E"/>
    </linearGradient>
    <linearGradient id="paint1_linear_568_865" x1="56.5" y1="0" x2="56.5" y2="108.719" gradientUnits="userSpaceOnUse">
    <stop stop-color="#FF9F00"/>
    <stop offset="1" stop-color="#FFB800"/>
    </linearGradient>
    </defs>
  </symbol>

  <symbol id='description__pay' width="73" height="112" viewBox="0 0 73 112" fill="none" xmlns="http://www.w3.org/2000/svg">
    <path d="M3.28125 1H68.9062C70.1676 1 71.1873 2.01982 71.1875 3.28125V108.718C71.1875 109.64 70.6299 110.474 69.7803 110.825L69.7754 110.827C68.9536 111.173 67.9586 110.995 67.2939 110.33C64.5605 107.597 60.1281 107.597 57.3945 110.33C56.5034 111.221 55.0601 111.221 54.1689 110.33C51.4355 107.597 47.0031 107.597 44.2695 110.33C43.3784 111.221 41.9351 111.221 41.0439 110.33C38.3105 107.597 33.8781 107.597 31.1445 110.33C30.2534 111.221 28.8101 111.221 27.9189 110.33C25.1855 107.597 20.7531 107.597 18.0195 110.33C17.1284 111.221 15.6851 111.221 14.7939 110.33C12.0605 107.597 7.62815 107.597 4.89453 110.33C4.23791 110.987 3.25257 111.178 2.41113 110.826L2.40723 110.824C1.55772 110.473 1.00014 109.64 1 108.718V3.28125C1 2.01988 2.01988 1 3.28125 1Z" fill="url(#paint0_linear_568_855)" stroke="url(#paint1_linear_568_855)" stroke-width="2"/>
    <path d="M35.9687 39.6875C34.1614 39.6875 32.6875 38.2166 32.6875 36.4062C32.6875 34.5959 34.1614 33.125 35.9687 33.125C37.7761 33.125 39.25 34.5959 39.25 36.4062C39.25 38.2199 40.7176 39.6875 42.5312 39.6875C44.3449 39.6875 45.8125 38.2199 45.8125 36.4062C45.8125 32.1341 43.0615 28.526 39.25 27.1669V23.2812C39.25 21.4676 37.7824 20 35.9687 20C34.1551 20 32.6875 21.4676 32.6875 23.2812V27.1669C28.876 28.526 26.125 32.1341 26.125 36.4062C26.125 41.8343 30.5407 46.25 35.9687 46.25C37.7761 46.25 39.25 47.7209 39.25 49.5312C39.25 51.3416 37.7761 52.8125 35.9687 52.8125C34.1614 52.8125 32.6875 51.3416 32.6875 49.5312C32.6875 47.7176 31.2199 46.25 29.4062 46.25C27.5926 46.25 26.125 47.7176 26.125 49.5312C26.125 53.8034 28.876 57.4115 32.6875 58.7706V62.6563C32.6875 64.4699 34.1551 65.9375 35.9687 65.9375C37.7824 65.9375 39.25 64.4699 39.25 62.6563V58.7706C43.0615 57.4117 45.8125 53.8034 45.8125 49.5312C45.8125 44.1032 41.397 39.6875 35.9687 39.6875ZM35.9687 72.5H16.2812C14.4676 72.5 13 73.9676 13 75.7813C13 77.5949 14.4676 79.0625 16.2812 79.0625H35.9687C37.7824 79.0625 39.25 77.5949 39.25 75.7813C39.25 73.9676 37.7824 72.5 35.9687 72.5ZM35.9687 85.625H16.2812C14.4676 85.625 13 87.0926 13 88.9062C13 90.7199 14.4676 92.1875 16.2812 92.1875H35.9687C37.7824 92.1875 39.25 90.7199 39.25 88.9062C39.25 87.0926 37.7824 85.625 35.9687 85.625ZM49.0937 79.0625H55.6562C57.4699 79.0625 58.9375 77.5949 58.9375 75.7813C58.9375 73.9676 57.4699 72.5 55.6562 72.5H49.0937C47.2801 72.5 45.8125 73.9676 45.8125 75.7813C45.8125 77.5949 47.2801 79.0625 49.0937 79.0625ZM55.6562 85.625H49.0937C47.2801 85.625 45.8125 87.0926 45.8125 88.9062C45.8125 90.7199 47.2801 92.1875 49.0937 92.1875H55.6562C57.4699 92.1875 58.9375 90.7199 58.9375 88.9062C58.9375 87.0926 57.4699 85.625 55.6562 85.625Z" fill="white"/>
    <defs>
    <linearGradient id="paint0_linear_568_855" x1="36.0939" y1="-42.8026" x2="36.0939" y2="149.452" gradientUnits="userSpaceOnUse">
    <stop offset="0.630208" stop-color="#FFAE00"/>
    <stop offset="1" stop-color="#FFCD1E"/>
    </linearGradient>
    <linearGradient id="paint1_linear_568_855" x1="36.0939" y1="0" x2="36.0939" y2="112" gradientUnits="userSpaceOnUse">
    <stop stop-color="#FF9F00"/>
    <stop offset="1" stop-color="#FFB800"/>
    </linearGradient>
    </defs>
  </symbol>

  <symbol id='star' viewBox="0 0 25 24" xmlns="http://www.w3.org/2000/svg">
    <path d="M11.1289 1.52344C11.6445 0.492188 13.1055 0.535156 13.5781 1.52344L16.4141 7.23828L22.6875 8.14062C23.8047 8.3125 24.2344 9.6875 23.418 10.5039L18.9062 14.9297L19.9805 21.1602C20.1523 22.2773 18.9492 23.1367 17.9609 22.6211L12.375 19.6562L6.74609 22.6211C5.75781 23.1367 4.55469 22.2773 4.72656 21.1602L5.80078 14.9297L1.28906 10.5039C0.472656 9.6875 0.902344 8.3125 2.01953 8.14062L8.33594 7.23828L11.1289 1.52344Z" fill="#FFB30E"/>
  </symbol>


  <symbol id='restaurant__discount' viewBox="0 0 19 19" xmlns="http://www.w3.org/2000/svg">
    <path d="M0 9.14453V1.9375C0 1.02344 0.738281 0.25 1.6875 0.25H8.85938C9.31641 0.25 9.73828 0.460938 10.0547 0.777344L17.4727 8.19531C18.1406 8.86328 18.1406 9.95312 17.4727 10.5859L10.3008 17.7578C9.66797 18.4258 8.57812 18.4258 7.91016 17.7578L0.492188 10.3398C0.175781 10.0234 0 9.60156 0 9.14453ZM3.9375 2.5C2.98828 2.5 2.25 3.27344 2.25 4.1875C2.25 5.13672 2.98828 5.875 3.9375 5.875C4.85156 5.875 5.625 5.13672 5.625 4.1875C5.625 3.27344 4.85156 2.5 3.9375 2.5Z" fill="white"/>
  </symbol>


  <symbol id='button__arrow' viewBox="0 0 9 13" xmlns="http://www.w3.org/2000/svg">
    <path d="M7.91797 7.21484C8.16406 6.96875 8.16406 6.55859 7.91797 6.3125L2.61328 0.980469C2.33984 0.734375 1.92969 0.734375 1.68359 0.980469L1.05469 1.60938C0.808594 1.85547 0.808594 2.26562 1.05469 2.53906L5.26562 6.75L1.05469 10.9883C0.808594 11.2617 0.808594 11.6719 1.05469 11.918L1.68359 12.5469C1.92969 12.793 2.33984 12.793 2.61328 12.5469L7.91797 7.21484Z" fill="white"/>
  </symbol>



</svg>